<?xml version="1.0" standalone="no"?>
<!DOCTYPE svg PUBLIC "-//W3C//DTD SVG 20010904//EN"
 "http://www.w3.org/TR/2001/REC-SVG-20010904/DTD/svg10.dtd">
<svg version="1.0" xmlns="http://www.w3.org/2000/svg"
 width="16.000000pt" height="16.000000pt" viewBox="0 0 16.000000 16.000000"
 preserveAspectRatio="xMidYMid meet">
<metadata>
Created by potrace 1.11, written by Peter Selinger 2001-2013
</metadata>
<g transform="translate(0.000000,16.000000) scale(0.002458,-0.002458)"
fill="#000000" stroke="none">
<path d="M3346 3699 c-127 -11 -285 -53 -342 -91 -58 -40 -104 -136 -98 -206
5 -63 61 -116 134 -128 19 -3 42 -9 50 -13 18 -10 42 -7 145 19 118 29 133 31
150 13 43 -43 83 -220 79 -358 -1 -53 -7 -102 -12 -107 -12 -12 -16 -12 -147
-23 -49 -4 -92 -8 -95 -10 -3 -1 -32 -6 -65 -10 -32 -3 -62 -8 -65 -10 -3 -2
-25 -6 -50 -10 -25 -4 -47 -8 -50 -10 -3 -2 -26 -6 -50 -10 -25 -3 -61 -10
-80 -15 -19 -5 -55 -12 -80 -15 -25 -3 -52 -8 -60 -10 -8 -2 -31 -6 -52 -9
-115 -17 -257 -106 -299 -188 -37 -72 -16 -230 41 -313 88 -127 305 -261 458
-281 145 -19 246 13 408 133 147 109 202 190 278 411 19 56 33 102 31 102 -3
0 -1 10 4 23 5 13 12 40 15 60 3 20 9 54 12 75 3 20 12 48 19 61 8 17 10 36 4
63 -5 21 -11 95 -13 166 -4 120 -22 240 -48 307 -6 17 -29 58 -50 92 -33 52
-46 64 -74 69 -43 8 -136 -2 -200 -21 -54 -16 -120 -22 -129 -13 -15 15 121
75 235 104 47 12 86 14 142 10 l76 -6 16 30 c26 52 -3 98 -68 106 -19 2 -45 8
-58 12 -13 4 -63 5 -112 1z m76 -968 c21 -8 24 -15 23 -58 -5 -156 -63 -291
-171 -396 -69 -67 -173 -136 -214 -142 -170 -24 -255 -7 -377 77 -163 112
-193 156 -155 224 20 37 269 154 327 154 7 0 80 22 162 50 81 27 161 50 176
50 15 0 42 7 60 17 63 32 124 41 169 24z"/>
<path d="M2430 3672 c-8 -3 -84 -38 -168 -79 -89 -42 -161 -71 -171 -68 -10 3
-32 20 -50 39 -59 60 -99 27 -135 -111 -9 -33 -23 -77 -31 -97 -12 -27 -14
-51 -8 -84 4 -26 7 -49 8 -52 3 -25 53 -106 77 -123 50 -37 74 -28 139 51 145
177 176 210 228 243 111 70 152 70 170 1 34 -125 40 -160 46 -233 6 -80 27
-161 48 -188 6 -7 34 -24 62 -37 l50 -23 28 30 28 30 -5 147 c-5 197 -26 275
-103 391 -76 113 -163 179 -213 163z"/>
<path d="M5335 3638 c-150 -17 -264 -68 -345 -154 -126 -133 -138 -291 -31
-410 41 -45 87 -77 178 -124 91 -46 154 -59 288 -56 78 1 81 2 138 45 31 24
57 47 57 52 0 4 -11 17 -25 27 -26 21 -55 27 -155 37 -59 6 -130 26 -197 57
-57 25 -57 44 -1 39 9 -1 50 5 90 13 40 8 100 18 133 22 33 3 62 8 66 9 3 2
39 7 80 11 40 4 81 8 89 10 8 1 18 3 21 3 16 2 31 67 34 140 3 91 -8 115 -93
203 -71 73 -163 95 -327 76z m188 -172 c16 -13 37 -64 37 -92 0 -7 -12 -16
-27 -21 -38 -13 -371 -14 -379 -2 -8 13 53 69 94 86 18 7 52 16 75 19 23 3 58
9 77 13 60 12 104 11 123 -3z"/>
<path d="M3874 3612 c-18 -11 -54 -89 -54 -115 0 -12 4 -27 9 -32 6 -6 28 -54
51 -109 111 -266 166 -353 256 -399 30 -16 32 -15 80 16 74 49 430 330 446
352 4 5 5 12 2 16 -2 4 18 24 44 45 96 76 122 106 122 139 0 19 -8 39 -19 49
-19 17 -22 17 -78 -4 -32 -12 -63 -23 -70 -24 -7 -1 -16 -5 -19 -9 -4 -4 -14
-7 -23 -7 -9 -1 -32 -13 -52 -28 -109 -82 -147 -110 -189 -137 -26 -16 -80
-52 -120 -78 -40 -27 -79 -51 -87 -54 -18 -7 -20 -4 -155 210 -62 97 -117 177
-123 177 -5 0 -15 -4 -21 -8z"/>
<path d="M792 3568 c-5 -7 -17 -28 -26 -46 -23 -44 -23 -205 -2 -257 9 -21 16
-47 16 -60 0 -29 45 -113 73 -135 64 -53 127 -82 189 -87 130 -12 190 -7 256
20 47 19 62 22 62 12 0 -8 -19 -63 -42 -122 -23 -59 -43 -110 -43 -113 -1 -3
-5 -12 -8 -20 -12 -28 -78 -205 -82 -220 -10 -40 -68 -196 -77 -207 -14 -18
-88 -264 -88 -295 0 -63 39 -116 94 -128 49 -11 82 11 90 59 3 22 20 80 36
128 35 102 34 97 53 185 8 37 23 84 34 105 11 21 19 47 17 58 -2 11 6 34 18
53 11 18 38 79 59 134 21 56 44 105 51 109 6 4 13 20 15 36 2 15 13 39 24 53
21 27 109 204 109 220 0 6 15 27 33 47 48 54 127 224 127 274 0 24 -25 104
-37 118 -2 3 -24 5 -49 6 -39 2 -48 -2 -70 -28 -31 -37 -212 -165 -275 -194
-26 -12 -60 -25 -75 -29 -16 -3 -69 -17 -117 -31 -111 -31 -144 -26 -190 27
-24 29 -34 50 -36 82 -10 140 -28 203 -66 242 -20 19 -59 21 -73 4z"/>
</g>
</svg>
